<svg viewBox="0 0 385 67" xmlns="http://www.w3.org/2000/svg">
  <path fill="#ffffff" d="M 232.26 18.948 C 234.206 18.131 238.708 18.133 240.505 19.005 C 241.274 19.377 243.047 14.919 243.03 12.685 C 243.008 10.066 242.572 8.491 241.159 5.929 C 240.625 4.968 240.418 4.798 240.014 4.964 C 239.639 5.138 239.621 5.183 239.508 6.289 C 239.404 7.432 239.128 8.141 238.56 8.803 C 237.862 9.616 237.256 9.76 236.499 8.704 C 236.2 8.286 236.247 8.515 235.764 7.222 C 235.484 6.469 235.054 3.816 235.072 2.559 C 235.09 1.282 234.879 0.726 234.351 0.646 C 234.059 0.595 233.929 0.704 233.081 1.733 C 231.249 3.954 229.862 7.478 229.512 10.511 C 229.115 13.898 230.015 16.331 231.526 18.506 C 231.756 18.837 231.811 19.137 232.26 18.948 Z" />
  <g fill="#ffffff">
    <path d="M 0.991 10.356 L 0.991 53.415 L 11.157 53.415 L 11.157 10.356 L 0.991 10.356 Z" />
    <path d="M 25.811 21.285 C 24.271 21.45 20.683 22.152 18.978 22.631 L 17.812 22.945 L 17.665 30.211 C 17.844 30.166 19.606 29.882 20.967 29.598 C 24.196 28.88 25.288 28.731 27.456 28.716 C 31.148 28.656 31.866 29.239 31.866 32.214 L 31.866 33.53 L 28.323 33.53 C 22.073 33.53 19.636 34.218 17.214 36.655 C 15.226 38.673 14.598 40.393 14.598 43.921 C 14.598 46.612 14.867 47.928 15.749 49.707 C 17.124 52.443 19.337 53.759 22.97 53.968 C 25.946 54.133 28.622 53.31 31.029 51.486 C 31.582 51.053 32.075 50.724 32.09 50.754 C 32.105 50.783 32.345 51.382 32.614 52.099 L 33.107 53.415 L 42.048 53.415 L 41.988 41.409 C 41.943 29.628 41.928 29.404 41.614 28.163 C 40.612 24.365 38.205 22.257 34.019 21.494 C 32.404 21.195 27.695 21.076 25.811 21.285 Z M 31.866 42.112 C 31.866 45.027 31.821 45.79 31.657 45.924 C 31.253 46.268 28.951 47.001 28.054 47.091 C 26.947 47.195 26.215 46.986 25.512 46.358 C 24.839 45.775 24.63 44.833 24.72 42.785 C 24.794 40.721 25.273 39.78 26.544 39.107 C 27.201 38.763 28.906 38.494 30.491 38.479 L 31.866 38.464 L 31.866 42.112 Z" />
    <path d="M 46.114 34.382 C 46.159 46.029 46.174 47.135 46.428 47.958 C 47.101 50.2 48.477 52.069 50.091 52.877 C 51.586 53.639 52.932 53.908 55.414 53.908 C 57.477 53.923 57.761 53.878 58.927 53.505 C 60.557 52.966 62.59 51.905 63.727 50.993 C 64.205 50.604 64.639 50.275 64.654 50.275 C 64.684 50.275 64.998 50.978 65.356 51.845 L 65.999 53.415 L 74.476 53.415 L 74.476 21.719 L 64.31 21.719 L 64.28 33.037 L 64.235 44.355 L 63.413 44.758 C 61.723 45.61 60.303 46.014 58.898 46.014 C 57.432 46.014 56.969 45.79 56.505 44.878 C 56.251 44.414 56.236 43.532 56.236 33.037 L 56.236 21.719 L 51.153 23.774 L 46.055 21.719 L 46.114 34.382 Z" />
    <path d="M 96.454 21.345 C 94.197 21.779 91.595 22.87 89.547 24.275 C 89.069 24.589 88.65 24.858 88.62 24.858 C 88.59 24.858 87.275 21.719 87.275 21.719 L 82.969 21.719 L 78.663 21.719 L 78.663 53.415 L 88.829 53.415 L 88.904 30.944 L 90.579 30.226 C 93.958 28.776 96.454 28.686 97.411 29.987 C 97.725 30.405 97.725 30.51 97.77 41.918 L 97.8 53.415 L 107.982 53.415 L 107.937 40.886 C 107.877 28.566 107.877 28.357 107.548 27.206 C 106.696 24.111 105.036 22.347 102.285 21.569 C 100.805 21.151 97.994 21.046 96.454 21.345 Z" />
    <path d="M 123.037 21.345 C 119.509 21.823 117.177 22.9 115.039 25.023 C 112.048 27.983 110.658 32.08 110.658 37.881 C 110.658 44.504 112.572 49.378 116.055 51.71 C 118.223 53.146 120.496 53.804 123.964 53.953 C 126.955 54.103 129.421 53.774 132.681 52.802 L 133.682 52.503 C 133.682 52.503 133.623 45.192 133.548 45.192 C 133.473 45.192 132.591 45.386 131.574 45.625 C 126.371 46.866 123.576 46.597 122.245 44.758 C 121.632 43.921 121.168 42.56 120.944 40.961 C 120.72 39.241 120.869 34.307 121.198 33.156 C 121.886 30.689 123.037 29.284 124.772 28.82 C 126.177 28.432 128.524 28.581 131.066 29.194 C 132.143 29.463 133.682 29.822 133.682 29.822 L 133.852 22.679 C 133.059 22.275 130.318 21.554 128.898 21.33 C 127.179 21.076 124.996 21.076 123.037 21.345 Z" />
    <path d="M 137.57 10.356 L 137.57 53.415 L 147.736 53.415 L 147.736 42.217 C 147.736 33.276 147.781 30.988 147.931 30.869 C 148.23 30.615 150.233 29.837 151.549 29.478 C 152.954 29.075 154.883 29.015 155.631 29.329 C 156.677 29.762 156.632 29.179 156.677 41.932 L 156.707 53.415 L 166.889 53.415 L 166.844 40.901 C 166.784 28.581 166.784 28.357 166.455 27.206 C 165.603 24.156 163.898 22.317 161.162 21.554 C 160.131 21.27 159.563 21.21 157.754 21.21 C 155.332 21.21 154.15 21.45 151.953 22.377 C 150.771 22.87 148.275 24.29 148.11 24.574 C 147.781 25.083 147.736 24.156 147.736 17.532 L 147.736 10.356 L 137.57 10.356 Z" />
    <path d="M 176.293 10.356 L 176.293 52.772 L 178.132 53.026 C 186.759 54.192 191.633 54.267 195.804 53.31 C 200.528 52.234 203.952 48.376 205.059 42.904 C 205.672 39.899 205.642 34.293 204.999 31.123 C 204.326 27.834 203.294 25.666 201.575 23.946 C 199.572 21.943 197.568 21.225 193.935 21.21 C 192.066 21.195 191.618 21.24 190.646 21.539 C 189.465 21.913 187.94 22.646 187.028 23.274 L 186.459 23.647 L 186.459 17.009 L 186.459 10.356 L 176.293 10.356 Z M 193.337 28.641 C 194.099 29.015 194.578 29.747 194.922 31.033 C 195.535 33.351 195.58 39.899 194.997 42.605 C 194.443 45.207 193.292 46.881 191.767 47.27 C 191.035 47.449 189.33 47.479 187.596 47.345 L 186.459 47.24 L 186.489 38.329 L 186.534 29.419 L 187.685 28.925 C 189.225 28.267 189.883 28.148 191.393 28.237 C 192.29 28.282 192.859 28.402 193.337 28.641 Z" />
    <path d="M 222.611 21.405 C 221.206 21.868 219.89 22.825 218.799 24.171 L 218.32 24.769 L 217.617 23.244 L 216.915 21.719 L 212.893 21.719 L 208.886 21.719 L 208.886 53.415 L 219.053 53.415 L 219.053 30.734 L 219.621 30.48 C 221.206 29.762 223.598 29.598 226.154 30.017 C 226.902 30.136 227.59 30.241 227.694 30.241 C 227.829 30.241 227.874 29.269 227.874 25.845 L 227.874 21.465 L 227.321 21.36 C 227.007 21.3 226.02 21.225 225.108 21.181 C 223.747 21.136 223.314 21.166 222.611 21.405 Z" />
    <path d="M 231.313 21.719 L 231.313 53.415 L 241.479 53.415 L 241.479 21.719 C 241.803 20.11 231.653 19.889 231.313 21.719 Z" />
    <path d="M 257.077 21.326 C 255.366 21.594 253.299 22.278 251.871 23.064 C 248.45 24.934 246.353 28.091 245.371 32.886 C 245.104 34.188 245.044 34.974 245.044 37.93 C 245.029 40.252 245.089 41.772 245.223 42.441 C 246.591 49.44 250.309 53.115 256.6 53.65 C 259.292 53.884 261.95 53.19 263.779 51.488 C 265.522 49.868 265.262 49.769 265.262 49.769 L 264.989 52.146 C 264.75 55.47 263.324 55.991 262.807 56.406 C 260.579 58.198 256.396 57.685 250.953 56.716 C 249.956 56.532 249.064 56.381 248.989 56.381 C 248.9 56.381 248.841 64.7 248.841 64.7 L 249.792 64.884 C 253.168 65.552 253.942 65.619 256.946 65.636 C 260.323 65.653 261.602 65.468 263.922 64.633 C 269.84 62.512 273.422 60.431 274.656 50.96 C 275.028 48.087 275.028 39.601 274.656 36.794 C 273.957 31.566 272.737 28.225 270.61 25.669 C 268.856 23.581 266.833 22.312 264.141 21.626 C 262.653 21.242 258.697 21.075 257.077 21.326 Z M 262.015 29.412 C 263.263 30.046 264.097 31.616 264.528 34.156 C 264.765 35.508 265.034 39.885 265.034 42.307 L 265.034 43.86 L 264.112 44.378 C 261.925 45.614 259.724 46.115 258.222 45.698 C 255.946 45.097 255.038 42.791 255.038 37.596 C 255.024 33.922 255.44 31.9 256.497 30.514 C 257.731 28.893 260.066 28.426 262.015 29.412 Z" />
    <path d="M 278.558 10.356 L 278.558 53.415 L 288.724 53.415 L 288.724 42.217 C 288.724 33.276 288.769 30.988 288.919 30.869 C 289.218 30.615 291.221 29.837 292.537 29.478 C 293.942 29.075 295.871 29.015 296.618 29.329 C 297.665 29.762 297.62 29.179 297.665 41.932 L 297.695 53.415 L 307.877 53.415 L 307.832 40.901 C 307.772 28.581 307.772 28.357 307.443 27.206 C 306.591 24.156 304.886 22.317 302.15 21.554 C 301.119 21.27 300.551 21.21 298.742 21.21 C 296.319 21.21 295.138 21.45 292.941 22.377 C 291.759 22.87 289.263 24.29 289.098 24.574 C 288.769 25.083 288.724 24.156 288.724 17.532 L 288.724 10.356 L 278.558 10.356 Z" />
    <path d="M 325.848 12.165 C 325.773 12.165 316.892 14.737 316.832 14.796 C 316.772 14.856 316.548 16.292 316.324 17.981 C 316.1 19.67 315.89 21.195 315.845 21.375 C 315.786 21.719 310.702 21.719 310.702 21.719 L 310.702 27.998 L 315.771 27.998 L 315.831 37.597 C 315.875 45.969 315.92 47.33 316.13 48.152 C 316.713 50.35 318.043 52.114 319.748 52.951 C 321.303 53.729 322.514 53.923 325.653 53.923 C 328.554 53.923 329.75 53.759 332.351 52.981 L 333.428 52.652 C 333.428 52.652 333.383 45.64 333.323 45.64 C 333.248 45.64 332.411 45.805 331.454 46.014 C 329.167 46.493 327.836 46.612 327.044 46.403 C 325.907 46.089 325.952 46.478 325.952 36.67 L 325.952 27.998 L 331.873 27.998 C 331.873 27.998 332.74 22.122 332.77 21.973 C 332.845 21.734 325.952 21.719 325.952 21.719 L 325.952 16.934 C 325.952 14.303 325.907 12.15 325.848 12.165 Z" />
    <path d="M 337.465 10.356 L 337.465 53.415 L 347.631 53.415 L 347.631 10.356 L 337.465 10.356 Z" />
    <path d="M 370.785 65.547 L 384.099 21.209 L 374.658 21.209 C 374.658 21.209 371.453 33.888 369.919 39.244 C 368.7 43.5 367.444 44.824 366.222 45.183 C 364.917 45.588 363.126 45.648 362.432 45.333 C 361.46 44.899 361.502 45.483 361.46 32.709 L 361.432 21.209 L 351.977 21.209 L 352.019 33.743 C 352.075 46.082 352.075 46.306 352.38 47.459 C 353.171 50.514 354.754 52.356 357.295 53.12 C 358.253 53.404 358.78 53.464 360.46 53.464 C 362.71 53.464 363.414 53.101 365.455 52.173 C 366.551 51.679 361.344 65.547 361.344 65.547 L 370.785 65.547 Z" />
  </g>
</svg>